<svg xmlns="http://www.w3.org/2000/svg" aria-hidden="true" style="position:absolute;width:0;height:0;overflow:hidden">
    <defs>
        <symbol  id="logo" viewBox="0 0 40 40" xmlns="http://www.w3.org/2000/svg">
            <circle cx="20" cy="20" r="20" fill="currentColor"/>
            <path fill-rule="evenodd" clip-rule="evenodd" d="M20.4431 19C26.387 14.517 26.6494 11.8 20.4431 7C14.1183 11.9024 14.9336 14.501 20.4431 19ZM19 20.5569C14.5169 14.613 11.8 14.3505 6.99998 20.5569C11.9024 26.8816 14.5009 26.0664 19 20.5569ZM34 20.5569C29.5169 14.613 26.8 14.3505 22 20.5569C26.9024 26.8816 29.5009 26.0664 34 20.5569ZM20.4431 34C26.387 29.517 26.6494 26.8 20.4431 22C14.1183 26.9024 14.9336 29.501 20.4431 34Z" fill="#FCFCFC"/>
        </symbol>
        <symbol id="arrow-right" viewBox="0 0 16 16" fill="none" xmlns="http://www.w3.org/2000/svg">
            <path d="M0.93335 8H13.7333" stroke="currentColor" stroke-width="1.6" stroke-linecap="round" stroke-linejoin="round"/>
            <path d="M9.59998 3.33337L14.2666 8.00004L9.59998 12.6667" stroke="currentColor" stroke-width="1.6" stroke-linecap="round" stroke-linejoin="round"/>
        </symbol>
        <symbol id="user1" viewBox="0 0 14 14" xmlns="http://www.w3.org/2000/svg">
            <path d="M6.66667 0C7.55073 0 8.39857 0.35119 9.02369 0.976311C9.64882 1.60143 10 2.44928 10 3.33334C10 4.21739 9.64882 5.06524 9.02369 5.69036C8.39857 6.31548 7.55073 6.66667 6.66667 6.66667C5.78262 6.66667 4.93477 6.31548 4.30965 5.69036C3.68453 5.06524 3.33334 4.21739 3.33334 3.33334C3.33334 2.44928 3.68453 1.60143 4.30965 0.976311C4.93477 0.35119 5.78262 0 6.66667 0ZM6.66667 13.3333C6.66667 13.3333 13.3333 13.3333 13.3333 11.6667C13.3333 9.66667 10.0833 7.5 6.66667 7.5C3.25 7.5 0 9.66667 0 11.6667C0 13.3333 6.66667 13.3333 6.66667 13.3333Z" fill="currentColor"/>
        </symbol>
        <symbol id="user"  viewBox="0 0 20 20" fill="none" xmlns="http://www.w3.org/2000/svg">
            <path d="M9.9987 3.33325C10.8828 3.33325 11.7306 3.68444 12.3557 4.30956C12.9808 4.93468 13.332 5.78253 13.332 6.66659C13.332 7.55064 12.9808 8.39849 12.3557 9.02361C11.7306 9.64873 10.8828 9.99992 9.9987 9.99992C9.11465 9.99992 8.2668 9.64873 7.64168 9.02361C7.01656 8.39849 6.66537 7.55064 6.66537 6.66659C6.66537 5.78253 7.01656 4.93468 7.64168 4.30956C8.2668 3.68444 9.11465 3.33325 9.9987 3.33325ZM9.9987 16.6666C9.9987 16.6666 16.6654 16.6666 16.6654 14.9999C16.6654 12.9999 13.4154 10.8333 9.9987 10.8333C6.58203 10.8333 3.33203 12.9999 3.33203 14.9999C3.33203 16.6666 9.9987 16.6666 9.9987 16.6666Z" fill="currentColor" />
        </symbol>
        <symbol id="nav" width="32" height="22" viewBox="0 0 32 22" fill="none" xmlns="http://www.w3.org/2000/svg">
            <line x1="5.86914" y1="3.66663" x2="30.9996" y2="3.66663" stroke="#121417" stroke-width="2" stroke-linecap="round"/>
            <line x1="5.86914" y1="17" x2="30.9996" y2="17" stroke="#121417" stroke-width="2" stroke-linecap="round"/>
            <line x1="13.5215" y1="10.3334" x2="30.9997" y2="10.3334" stroke="#121417" stroke-width="2" stroke-linecap="round"/>
        </symbol>
        <symbol id="x" width="32" height="32" viewBox="0 0 32 32" fill="none" xmlns="http://www.w3.org/2000/svg">
            <path d="M24 8L8 24" strokek="currentColor" stroke-width="3" stroke-linecap="round" stroke-linejoin="round"/>
            <path d="M8 8L24 24" strokek="currentColor" stroke-width="3" stroke-linecap="round" stroke-linejoin="round"/>
        </symbol>
        <symbol id="eye" width="20" height="20" viewBox="0 0 20 20" fill="none" xmlns="http://www.w3.org/2000/svg">
            <g clip-path="url(#clip0_72_19363)">
                <path d="M0.833374 9.99998C0.833374 9.99998 4.16671 3.33331 10 3.33331C15.8334 3.33331 19.1667 9.99998 19.1667 9.99998C19.1667 9.99998 15.8334 16.6666 10 16.6666C4.16671 16.6666 0.833374 9.99998 0.833374 9.99998Z" stroke="currentColor" stroke-width="2" stroke-linecap="round" stroke-linejoin="round"/>
                <path d="M10 12.5C11.3807 12.5 12.5 11.3807 12.5 10C12.5 8.61929 11.3807 7.5 10 7.5C8.61929 7.5 7.5 8.61929 7.5 10C7.5 11.3807 8.61929 12.5 10 12.5Z" stroke="currentColor" stroke-width="2" stroke-linecap="round" stroke-linejoin="round"/>
            </g>
            <defs>
                <clipPath id="clip0_72_19363">
                    <rect width="20" height="20" fill="white"/>
                </clipPath>
            </defs>
        </symbol>
        <symbol id="eye-off"  viewBox="0 0 20 20" fill="none" xmlns="http://www.w3.org/2000/svg">
            <g clip-path="url(#clip0_72_19357)">
                <path d="M14.95 14.95C13.5255 16.0358 11.791 16.6374 10 16.6667C4.16671 16.6667 0.833374 10 0.833374 10C1.86995 8.06825 3.30765 6.38051 5.05004 5.05M8.25004 3.53333C8.82365 3.39907 9.41093 3.33195 10 3.33333C15.8334 3.33333 19.1667 10 19.1667 10C18.6609 10.9463 18.0576 11.8373 17.3667 12.6583M11.7667 11.7667C11.5378 12.0123 11.2618 12.2093 10.9552 12.3459C10.6485 12.4826 10.3175 12.556 9.98178 12.562C9.64611 12.5679 9.31268 12.5061 9.00138 12.3804C8.69009 12.2547 8.40731 12.0675 8.16991 11.8301C7.93252 11.5927 7.74537 11.31 7.61963 10.9987C7.4939 10.6874 7.43215 10.3539 7.43807 10.0183C7.44399 9.68258 7.51747 9.35154 7.65411 9.04487C7.79075 8.73821 7.98775 8.46221 8.23338 8.23333" stroke="currentColor" stroke-width="2" stroke-linecap="round" stroke-linejoin="round"/>
                <path d="M0.833374 0.833313L19.1667 19.1666" stroke="currentColor" stroke-width="2" stroke-linecap="round" stroke-linejoin="round"/>
            </g>
            <defs>
                <clipPath id="clip0_72_19357">
                    <rect width="20" height="20" fill="white"/>
                </clipPath>
            </defs>
        </symbol>
        <symbol id="search" viewBox="0 0 20 20" fill="none" xmlns="http://www.w3.org/2000/svg">
            <path d="M9.16667 15.8333C12.8486 15.8333 15.8333 12.8486 15.8333 9.16667C15.8333 5.48477 12.8486 2.5 9.16667 2.5C5.48477 2.5 2.5 5.48477 2.5 9.16667C2.5 12.8486 5.48477 15.8333 9.16667 15.8333Z" stroke="#121417" stroke-width="1.5" stroke-linecap="round" stroke-linejoin="round"/>
            <path d="M17.5 17.5L13.875 13.875" stroke="#121417" stroke-width="1.5" stroke-linecap="round" stroke-linejoin="round"/>
        </symbol>
        <symbol id="checked"  viewBox="0 0 18 18" fill="none" xmlns="http://www.w3.org/2000/svg">
            <rect x="1" y="1" width="16" height="16" rx="8" stroke="currentColor" stroke-width="2"/>
            <rect x="4" y="4" width="10" height="10" rx="5" fill="currentColor"/>
        </symbol>
        <symbol id="unchecked"  viewBox="0 0 18 18" fill="none" xmlns="http://www.w3.org/2000/svg">
            <rect x="1" y="1" width="16" height="16" rx="8" stroke="currentColor" stroke-width="2"/>
        </symbol>
        <symbol id="plus" width="20" height="20" viewBox="0 0 20 20" fill="none" xmlns="http://www.w3.org/2000/svg">
            <path d="M10 4.16669V15.8334" stroke="currentColor" stroke-width="1.5" stroke-linecap="round" stroke-linejoin="round"/>
            <path d="M4.16797 10H15.8346" stroke="currentColor" stroke-width="1.5" stroke-linecap="round" stroke-linejoin="round"/>
        </symbol>
        <symbol id="link-right" width="20" height="20" viewBox="0 0 20 20" fill="none" xmlns="http://www.w3.org/2000/svg">
            <path d="M3.33203 10H16.6654M16.6654 10L13.332 6.66669M16.6654 10L13.332 13.3334" stroke="currentColor" stroke-width="1.5" stroke-linecap="round" stroke-linejoin="round"/>
        </symbol>
        <symbol id="btn-addWord" width="20" height="20" viewBox="0 0 20 20" fill="none" xmlns="http://www.w3.org/2000/svg">
            <path d="M3.33203 10H16.6654M16.6654 10L13.332 6.66669M16.6654 10L13.332 13.3334" stroke="currentColor" stroke-width="1.5" stroke-linecap="round" stroke-linejoin="round"/>
        </symbol>
        <symbol id="icon-close"  viewBox="0 0 32 32" fill="none" xmlns="http://www.w3.org/2000/svg">
            <path d="M24 8L8 24" stroke="currentColor" stroke-width="2.5" stroke-linecap="round" stroke-linejoin="round"/>
            <path d="M8 8L24 24" stroke="currentColor" stroke-width="2.5" stroke-linecap="round" stroke-linejoin="round"/>
        </symbol>
        <symbol id="icon-ua" viewBox="0 0 28 28" fill="none" xmlns="http://www.w3.org/2000/svg">
            <g clip-path="url(#clip0_127_3568)">
                <path d="M14 28C21.732 28 28 21.732 28 14C28 6.26801 21.732 0 14 0C6.26801 0 0 6.26801 0 14C0 21.732 6.26801 28 14 28Z" fill="#FFDA44"/>
                <path d="M0 14C0 6.26806 6.26806 0 14 0C21.7319 0 28 6.26806 28 14" fill="#338AF3"/>
            </g>
            <defs>
                <clipPath id="clip0_127_3568">
                    <rect width="28" height="28" fill="white"/>
                </clipPath>
            </defs>
        </symbol>
        <symbol id="icon-uk"  viewBox="0 0 28 28" fill="none" xmlns="http://www.w3.org/2000/svg">
            <g clip-path="url(#clip0_127_3574)">
                <path d="M14 28C21.732 28 28 21.732 28 14C28 6.26801 21.732 0 14 0C6.26801 0 0 6.26801 0 14C0 21.732 6.26801 28 14 28Z" fill="#F0F0F0"/>
                <path d="M2.8942 5.4765C1.79448 6.90729 0.965258 8.55639 0.482422 10.3479H7.76559L2.8942 5.4765Z" fill="#0052B4"/>
                <path d="M27.5174 10.3479C27.0346 8.55645 26.2053 6.90735 25.1057 5.47656L20.2344 10.3479H27.5174Z" fill="#0052B4"/>
                <path d="M0.482422 17.6523C0.965312 19.4437 1.79454 21.0928 2.8942 22.5236L7.76543 17.6523H0.482422Z" fill="#0052B4"/>
                <path d="M22.5237 2.89413C21.0929 1.79442 19.4439 0.96519 17.6523 0.4823V7.76542L22.5237 2.89413Z" fill="#0052B4"/>
                <path d="M5.47656 25.1059C6.90735 26.2056 8.55645 27.0349 10.3479 27.5177V20.2347L5.47656 25.1059Z" fill="#0052B4"/>
                <path d="M10.3479 0.4823C8.5564 0.96519 6.9073 1.79442 5.47656 2.89407L10.3479 7.76536V0.4823Z" fill="#0052B4"/>
                <path d="M17.6523 27.5177C19.4438 27.0349 21.0929 26.2056 22.5236 25.106L17.6523 20.2347V27.5177Z" fill="#0052B4"/>
                <path d="M20.2344 17.6523L25.1057 22.5236C26.2053 21.0929 27.0346 19.4437 27.5174 17.6523H20.2344Z" fill="#0052B4"/>
                <path d="M27.8815 12.1739H15.8262H15.8261V0.118508C15.2283 0.0406875 14.6189 0 14 0C13.381 0 12.7717 0.0406875 12.1739 0.118508V12.1738V12.1739H0.118508C0.0406875 12.7717 0 13.3811 0 14C0 14.619 0.0406875 15.2283 0.118508 15.8261H12.1738H12.1739V27.8815C12.7717 27.9593 13.381 28 14 28C14.6189 28 15.2283 27.9594 15.8261 27.8815V15.8262V15.8261H27.8815C27.9593 15.2283 28 14.619 28 14C28 13.3811 27.9593 12.7717 27.8815 12.1739V12.1739Z" fill="#D80027"/>
                <path d="M17.6523 17.6523L23.8996 23.8996C24.187 23.6123 24.461 23.312 24.7226 23.0008L19.374 17.6522H17.6523V17.6523Z" fill="#D80027"/>
                <path d="M10.3469 17.6522H10.3468L4.09961 23.8994C4.38683 24.1868 4.68712 24.4609 4.9984 24.7224L10.3469 19.3737V17.6522Z" fill="#D80027"/>
                <path d="M10.3476 10.3479V10.3478L4.10028 4.10046C3.81295 4.38768 3.53886 4.68797 3.27734 4.99925L8.62594 10.3479H10.3476V10.3479Z" fill="#D80027"/>
                <path d="M17.6523 10.3479L23.8997 4.10053C23.6125 3.8132 23.3122 3.53911 23.0009 3.27765L17.6523 8.62625V10.3479Z" fill="#D80027"/>
            </g>
            <defs>
                <clipPath id="clip0_127_3574">
                    <rect width="28" height="28" fill="white"/>
                </clipPath>
            </defs>
        </symbol>
        <symbol id="next" width="16" height="16" viewBox="0 0 16 16" fill="none" xmlns="http://www.w3.org/2000/svg">
            <path d="M6.94 4L6 4.94L9.05333 8L6 11.06L6.94 12L10.94 8L6.94 4Z" fill="CurrentColor"/>
        </symbol>
        <symbol id="prev" width="16" height="16" viewBox="0 0 16 16" fill="none" xmlns="http://www.w3.org/2000/svg">
            <path d="M10.06 12L11 11.06L7.94667 8L11 4.94L10.06 4L6.06 8L10.06 12Z" fill="CurrentColor"/>
        </symbol>
        <symbol id="first" width="16" height="16" viewBox="0 0 16 16" fill="none" xmlns="http://www.w3.org/2000/svg">
            <path d="M11.726 12L12.666 11.06L9.61268 8L12.666 4.94L11.726 4L7.72602 8L11.726 12Z" fill="CurrentColor"/>
            <path d="M7.33344 12L8.27344 11.06L5.2201 8L8.27344 4.94L7.33344 4L3.33344 8L7.33344 12Z" fill="CurrentColor"/>
        </symbol>
        <symbol id="last" width="16" height="16" viewBox="0 0 16 16" fill="none" xmlns="http://www.w3.org/2000/svg">
            <path d="M4.27398 4L3.33398 4.94L6.38732 8L3.33398 11.06L4.27398 12L8.27398 8L4.27398 4Z" fill="CurrentColor"/>
            <path d="M8.66656 4L7.72656 4.94L10.7799 8L7.72656 11.06L8.66656 12L12.6666 8L8.66656 4Z" fill="CurrentColor"/>
        </symbol>
        <symbol id="close-icon" viewBox="0 0 32 32">
            <path stroke-width="1.333" d="M25.5 16c0 5.247-4.253 9.5-9.5 9.5S6.5 21.247 6.5 16s4.253-9.5 9.5-9.5 9.5 4.253 9.5 9.5z"/>
            <path stroke-linecap="round" stroke-width="1.333" d="M19.699 12.346 16 16.045m0 .001-3.699 3.699M16 16.046l3.699 3.699M16 16.046l-3.699-3.699"/>
        </symbol>
        <symbol id="log-in" width="20" height="20" viewBox="0 0 20 20" fill="none" xmlns="http://www.w3.org/2000/svg">
            <path d="M12.5 2.5H13.5C14.9001 2.5 15.6002 2.5 16.135 2.77248C16.6054 3.01217 16.9878 3.39462 17.2275 3.86502C17.5 4.3998 17.5 5.09987 17.5 6.5V13.5C17.5 14.9001 17.5 15.6002 17.2275 16.135C16.9878 16.6054 16.6054 16.9878 16.135 17.2275C15.6002 17.5 14.9001 17.5 13.5 17.5H12.5" stroke="current Color" stroke-width="2" stroke-linecap="round" stroke-linejoin="round"/>
            <path d="M8.33333 5.83325L12.5 9.99992M12.5 9.99992L8.33333 14.1666M12.5 9.99992L2.5 9.99992" stroke="current Color" stroke-width="2" stroke-linecap="round" stroke-linejoin="round"/>
        </symbol>
        <symbol id="log-out" viewBox="0 0 31 32">
            <path stroke="current Color" stroke-linecap="round" stroke-linejoin="round" stroke-width="1.28" d="M12.554 6.88H9.046A2.806 2.806 0 0 0 6.24 9.686v12.628a2.806 2.806 0 0 0 2.806 2.806h3.508M11.04 16h14.031m0 0-4.209 4.209M25.071 16l-4.209-4.209"/>
        </symbol>
        <symbol id="logo-icon" viewBox="0 0 34 32">
            <path d="M14.649 5.99c.344-.036.698.001 1.032.084.989.247 1.659.854 2.169 1.703a3.654 3.654 0 0 1 1.211.074c.846.21 1.576.737 2.034 1.469a3.132 3.132 0 0 1 .379 2.44c-.283 1.07-.962 1.626-1.887 2.16.026.657.016 1.316.017 1.974.001.415.028.848-.013 1.26a1.056 1.056 0 0 1-.142.469c-.133.095-.269.124-.43.143-.423.051-.883.016-1.31.015l-2.516-.009c-.895.066-1.843.004-2.743.004-.599.001-1.274.071-1.866.004-.211-.024-.301-.163-.417-.318-.075-1.179-.011-2.397-.011-3.58-.493-.252-.912-.561-1.256-.996a3.076 3.076 0 0 1-.639-2.31 3.325 3.325 0 0 1 1.308-2.178 3.225 3.225 0 0 1 2.397-.611c.12-.209.241-.418.39-.609.576-.734 1.379-1.077 2.292-1.192zm.048 1.447c-.562.11-1.045.311-1.384.797-.19.272-.363 1.053-.599 1.173-.313.037-.64-.107-.944-.173-.609-.132-1.297.109-1.674.598-.31.402-.456.957-.373 1.456.075.452.351.83.729 1.089.412.282.872.339 1.157.782.052 1.027.014 2.072.016 3.102 1.199-.009 2.398-.012 3.597-.008l2.929-.006c0-.522-.113-3.117.131-3.372.115-.119.377-.192.532-.252.698-.271 1.208-.741 1.272-1.515a1.753 1.753 0 0 0-.468-1.351 1.69 1.69 0 0 0-1.192-.559c-.413-.024-1.263.365-1.522.075-.126-.141-.177-.384-.241-.561-.264-.73-.816-1.154-1.593-1.255a2.448 2.448 0 0 0-.373-.02zM28.482 1.464c.26-.019.572-.015.777.172.191.174.2.453.136.686-.154.563-.648 1.238-.946 1.75-.476.819-.92 1.662-1.382 2.49-.286.513-.632 1.038-.86 1.574a1.23 1.23 0 0 0-.12.536.506.506 0 0 0 .189.391c.177.151.411.268.651.237a.588.588 0 0 0 .387-.228c.339-.421.54-1.008.787-1.484l1.707-3.295c.202-.394.38-.877.663-1.218.15-.18.289-.266.528-.286a.704.704 0 0 1 .519.155c.173.145.254.38.219.6-.066.423-.443.937-.644 1.323l-1.55 3.039c-.276.548-.601 1.108-.823 1.679-.052.133-.103.281-.084.426.023.169.148.317.285.413.153.107.361.178.549.137.216-.048.368-.204.489-.377.276-.395.458-.913.661-1.349l1.323-2.804c.249-.532.476-1.158.809-1.641.12-.174.248-.313.468-.346.223-.034.448.059.617.199.14.116.245.252.251.438.016.477-.859 2.132-1.097 2.664l-.938 2.095c-.46 1.033-.853 2.069-1.63 2.924-.764.842-1.634 1.199-2.684 1.575-.221.079-.561.157-.749.291-.371.265-.63.756-.848 1.143-.167.297-.38.62-.485.945-.154.479-.052 1.943-.052 2.521l-.002 7.462.004 2.282c.001.447.028.914-.022 1.358a.777.777 0 0 1-.203.461c-.363.353-1.703.228-2.217.225l-3.504-.005a14.9 14.9 0 0 1 .715-1.571c.455-.047.922-.027 1.379-.027l2.26.001v-9.752c-.293.693-.665 1.372-1.002 2.046a386.418 386.418 0 0 0-1.779 3.592 315.513 315.513 0 0 1-2.158 4.365c-.306.606-.577 1.244-.924 1.827-.141.236-.311.45-.547.602a1.48 1.48 0 0 1-1.082.203 1.348 1.348 0 0 1-.88-.616 1.263 1.263 0 0 1-.144-1.058c.18-.599.559-1.177.859-1.725l1.425-2.608c1.726-3.16 3.466-6.318 5.135-9.506.394-.752 1.285-2.176 1.499-2.884.234-.771-.257-1.693-.401-2.451a4.489 4.489 0 0 1 .373-2.842c.228-.449.503-.879.757-1.314l1.316-2.272 1.062-1.842c.21-.363.409-.754.663-1.089a.918.918 0 0 1 .29-.234z"/>
            <path d="M4.59.099C5.808.035 7.054.09 8.276.091L21.631.09c1.03 0 2.101-.059 3.128.006.21.013.449.072.608.217.139.127.199.351.226.529.054.361.022.757.021 1.123l-.009 2.076c-.509.818-1.065 1.612-1.6 2.414.047-.538.014-1.098.014-1.639V1.773c-6.092.005-12.191.061-18.282-.004-.062 2.492-.005 5-.005 7.493l.003 13.783 10.753-.008c.471-.001.971-.034 1.438.025-.173.536-.502 1.075-.758 1.58l-11.011-.019c-.581.001-1.186-.026-1.761.058-.495.07-.962.271-1.349.583-.474.378-.819.926-.868 1.534-.044.535.169 1.051.516 1.455.326.379.828.665 1.323.759.724.137 1.799.04 2.561.042l5.178.005c.963.001 1.943-.04 2.903.03-.17.498-.326 1.037-.423 1.554-.868-.077-1.793-.014-2.669-.014l-5.186-.001c-.902.002-1.93.106-2.81-.083-.618-.132-1.199-.454-1.682-.851-.78-.64-1.271-1.627-1.35-2.619-.045-.555-.012-1.13-.01-1.687l.001-2.702v-9.344L.529 6.863C.528 6.03.451 4.564.564 3.778c.106-.78.441-1.513.963-2.108A4.535 4.535 0 0 1 4.59.099zm-.482 1.743c-.858.348-1.487.784-1.853 1.654-.126.3-.16.67-.171.994-.054 1.586-.004 3.191-.003 4.778l.001 9.166.001 4.064c0 .46-.086 1.088.016 1.527l.037.013.057-.037c.647-.478 1.195-.739 1.989-.905-.062-2.265-.008-4.548-.005-6.814.003-2.548-.042-5.1-.013-7.647.017-1.667.02-3.333.011-5 0-.401.066-1.447-.012-1.776l-.055-.016z"/>
        </symbol>
        <symbol id="burger-icon" viewBox="0 0 31 32">
            <path stroke-linecap="round" stroke-width="1.293" d="M7.273 9.535h16.485M7.273 21.172h16.485M7.273 15.354h16.485"/>
        </symbol>
        <symbol id="save-icon" viewBox="0 0 32 32">
            <path stroke-linecap="round" stroke-linejoin="round" stroke-width="1.333" d="M15.996 4.667c1.685 0 3.231.161 4.457.348 1.552.236 2.768 1.299 3.115 2.785.418 1.794.828 4.522.758 8.187-.078 4.044-.668 6.962-1.237 8.866-.154.515-.51.78-.913.848-.421.071-.941-.069-1.363-.49-.769-.766-1.65-1.593-2.462-2.232a9.094 9.094 0 0 0-1.184-.811c-.353-.196-.767-.374-1.171-.374-.397 0-.825.175-1.199.367-.399.205-.84.486-1.292.805-.905.639-1.907 1.466-2.789 2.233-.466.405-1.014.5-1.447.383-.417-.114-.769-.434-.878-.992-.372-1.917-.725-4.749-.725-8.59 0-3.831.395-6.534.788-8.273.326-1.442 1.502-2.468 3.014-2.702a29.972 29.972 0 0 1 4.527-.358z"/>
        </symbol>
        <symbol id="time-icon" viewBox="0 0 32 32">
            <path stroke-linecap="round" stroke-linejoin="round" stroke-width=".667" d="M16 10.154v6.577l4.385 3.654M25.5 16c0 5.247-4.253 9.5-9.5 9.5S6.5 21.247 6.5 16s4.253-9.5 9.5-9.5 9.5 4.253 9.5 9.5z"/>
        </symbol>
        <symbol id="close-x-icon" viewBox="0 0 32 32" fill="none" xmlns="http://www.w3.org/2000/svg">
            <path d="M24 8L8 24" stroke="current Color" stroke-linecap="round" stroke-linejoin="round"/>
            <path d="M8 8L24 24" stroke="current Color" stroke-linecap="round" stroke-linejoin="round"/>
        </symbol>
        <symbol id="pswd-icon" viewBox="0 0 31 32">
            <path stroke-linecap="round" stroke-width="1.28" d="M18.446 22.384c-1.042.484-2.2.799-3.418.799-4.588 0-8.308-4.469-8.308-5.604 0-.644 1.195-2.358 3.066-3.723m12.553 5.519c.636-.765.997-1.442.997-1.796 0-1.135-3.719-5.604-8.308-5.604 2.019 0 3.655 1.623 3.655 3.626m-3.655 3.626c-2.019 0-3.655-1.623-3.655-3.626M24 11.975c-2.53-2.094-5.484-3.296-8.64-3.296-1.137 0-2.248.156-3.323.454M6.72 11.975c.235-.194.473-.381.714-.559M6.72 7.36l16.046 16.2"/>
        </symbol>
        <symbol id="icon-eye" viewBox="0 0 24 24">
            <path d="M11.7404 8.93179C8.15584 8.93179 5.25 12.3977 5.25 13.2784C5.25 14.1591 8.15584 17.625 11.7404 17.625C15.3249 17.625 18.2308 14.1591 18.2308 13.2784C18.2308 12.3977 15.3249 8.93179 11.7404 8.93179ZM11.7404 8.93179C10.1632 8.93179 8.88464 10.191 8.88464 11.7443C8.88464 13.2976 10.1632 14.5568 11.7404 14.5568C13.3176 14.5568 14.5962 13.2976 14.5962 11.7443C14.5962 10.191 13.3176 8.93179 11.7404 8.93179ZM18.75 8.93182C16.7731 7.30753 14.4652 6.375 12 6.375C9.53482 6.375 7.22688 7.30753 5.25 8.93182"  stroke-linecap="round"/>
        </symbol>
        <symbol id="icon-eye-off" viewBox="0 0 24 24">
            <path d="M14.4107 16.9874C13.5963 17.3656 12.6923 17.6118 11.7405 17.6118C8.15598 17.6118 5.25017 14.1207 5.25017 13.2337C5.25017 12.7308 6.18382 11.3913 7.6455 10.3253M17.452 14.6368C17.9487 14.0392 18.2308 13.51 18.2308 13.2337C18.2308 12.3466 15.325 8.85553 11.7405 8.85553C13.3177 8.85553 14.5962 10.1239 14.5962 11.6884M11.7405 14.5213C10.1633 14.5213 8.88472 13.253 8.88472 11.6884M18.75 8.85561C16.7732 7.21954 14.4653 6.28024 12.0001 6.28024C11.1116 6.28024 10.2435 6.40227 9.40397 6.63496M5.25017 8.85561C5.43341 8.70396 5.6195 8.55829 5.8083 8.4188M5.25 5.25004L17.7856 17.9062"  stroke-linecap="round"/>
        </symbol>
        <symbol id="icon-star" width="16" height="16" viewBox="0 0 16 16" fill="none" xmlns="http://www.w3.org/2000/svg">
            <g clip-path="url(#clip0_6_316)">
                <path d="M9.7998 4.69727C9.95896 4.99878 10.249 5.20939 10.585 5.26758L14.3848 5.92383L11.6973 8.69141C11.4597 8.93598 11.3489 9.27679 11.3975 9.61426L11.9463 13.4316L8.48535 11.7305L8.36816 11.6807C8.13008 11.5961 7.86992 11.5961 7.63184 11.6807L7.51465 11.7305L4.05273 13.4316L4.60254 9.61426C4.65107 9.27679 4.54025 8.93598 4.30273 8.69141L1.61426 5.92383L5.41504 5.26758C5.75098 5.20939 6.04104 4.99878 6.2002 4.69727L8 1.28613L9.7998 4.69727Z" fill="#FFC531" stroke="#FFC531" stroke-width="1.2"/>
            </g>
            <defs>
                <clipPath id="clip0_6_316">
                    <rect width="16" height="16" fill="white"/>
                </clipPath>
            </defs>
        </symbol>
        <symbol id="heart" width="26" height="26" viewBox="0 0 26 26"  xmlns="http://www.w3.org/2000/svg">
            <path d="M22.5766 4.99419C22.0233 4.44061 21.3663 4.00147 20.6433 3.70187C19.9202 3.40226 19.1452 3.24805 18.3625 3.24805C17.5798 3.24805 16.8047 3.40226 16.0817 3.70187C15.3586 4.00147 14.7016 4.44061 14.1483 4.99419L13 6.14252L11.8516 4.99419C10.734 3.87652 9.21809 3.24863 7.63747 3.24863C6.05685 3.24863 4.54097 3.87652 3.4233 4.99419C2.30563 6.11186 1.67773 7.62774 1.67773 9.20836C1.67773 10.789 2.30563 12.3049 3.4233 13.4225L4.57163 14.5709L13 22.9992L21.4283 14.5709L22.5766 13.4225C23.1302 12.8692 23.5693 12.2122 23.869 11.4892C24.1686 10.7661 24.3228 9.99105 24.3228 9.20836C24.3228 8.42566 24.1686 7.65064 23.869 6.92756C23.5693 6.20448 23.1302 5.54751 22.5766 4.99419Z" stroke="current Color" stroke-width="2" stroke-linecap="round" stroke-linejoin="round"/>
        </symbol>
        <symbol id="book" width="16" height="16" viewBox="0 0 16 16" fill="none" xmlns="http://www.w3.org/2000/svg">
            <path d="M14.6667 4.13333C14.6667 3.3866 14.6667 3.01323 14.5213 2.72801C14.3935 2.47713 14.1895 2.27316 13.9387 2.14532C13.6534 2 13.2801 2 12.5333 2H12.2667C10.7732 2 10.0265 2 9.45603 2.29065C8.95426 2.54631 8.54631 2.95426 8.29065 3.45603C8 4.02646 8 4.77319 8 6.26667V14L8.0667 13.8999C8.5298 13.2053 8.76135 12.858 9.06727 12.6065C9.33809 12.3839 9.65016 12.2169 9.9856 12.1151C10.3645 12 10.7819 12 11.6168 12H12.5333C13.2801 12 13.6534 12 13.9387 11.8547C14.1895 11.7268 14.3935 11.5229 14.5213 11.272C14.6667 10.9868 14.6667 10.6134 14.6667 9.86667V4.13333Z" stroke="current color" stroke-width="1.5" stroke-linecap="round" stroke-linejoin="round"/>
            <path d="M1.33325 4.13333C1.33325 3.3866 1.33325 3.01323 1.47858 2.72801C1.60641 2.47713 1.81038 2.27316 2.06126 2.14532C2.34648 2 2.71985 2 3.46659 2H3.73325C5.22673 2 5.97346 2 6.54389 2.29065C7.04566 2.54631 7.45361 2.95426 7.70927 3.45603C7.99992 4.02646 7.99992 4.77319 7.99992 6.26667V14L7.93322 13.8999C7.47012 13.2053 7.23857 12.858 6.93265 12.6065C6.66182 12.3839 6.34976 12.2169 6.01432 12.1151C5.63542 12 5.21799 12 4.38313 12H3.46659C2.71985 12 2.34648 12 2.06126 11.8547C1.81038 11.7268 1.60641 11.5229 1.47858 11.272C1.33325 10.9868 1.33325 10.6134 1.33325 9.86667V4.13333Z" stroke="current color" stroke-width="1.5" stroke-linecap="round" stroke-linejoin="round"/>
        </symbol>
        <symbol id="radio" width="24" height="24" viewBox="0 0 24 24" fill="none" xmlns="http://www.w3.org/2000/svg">
            <rect x="3" y="3" width="18" height="18" rx="9"  stroke-width="2"/>
        </symbol>
        <symbol id="radio-checked" width="24" height="24" viewBox="0 0 24 24"  xmlns="http://www.w3.org/2000/svg">
            <rect x="3" y="3" width="18" height="18" rx="9" fill="none" stroke-width="2"/>
            <rect x="7" y="7" width="10" height="10" rx="5" />
        </symbol>
        <symbol id="select-up" viewBox="0 0 16 16">
            <path
        fill-rule="evenodd"
        clip-rule="evenodd"
        d="M7.14663 4.14689C7.19308 4.10033 7.24825 4.06339 7.309 4.03818C7.36974 4.01297 7.43486 4 7.50063 4C7.5664 4 7.63152 4.01297 7.69226 4.03818C7.75301 4.06339 7.80819 4.10033 7.85463 4.14689L13.8546 10.1469C13.9485 10.2408 14.0013 10.3681 14.0013 10.5009C14.0013 10.6337 13.9485 10.761 13.8546 10.8549C13.7607 10.9488 13.6334 11.0015 13.5006 11.0015C13.3679 11.0015 13.2405 10.9488 13.1466 10.8549L7.50063 5.20789L1.85463 10.8549C1.76075 10.9488 1.63341 11.0015 1.50063 11.0015C1.36786 11.0015 1.24052 10.9488 1.14663 10.8549C1.05274 10.761 1 10.6337 1 10.5009C1 10.3681 1.05274 10.2408 1.14663 10.1469L7.14663 4.14689Z"
      />
        </symbol>
        <symbol id="google" xmlns="http://www.w3.org/2000/svg"  viewBox="0 0 48 48">
            <path fill="#4285F4" d="M24 9.5c3.5 0 6.6 1.2 9.1 3.6l6.8-6.8C35.9 2.5 30.3 0 24 0 14.6 0 6.4 5.4 2.5 13.2l7.9 6.1C12.2 13.2 17.6 9.5 24 9.5z"/>
            <path fill="#34A853" d="M46.1 24.5c0-1.6-.1-3.1-.4-4.5H24v9h12.6c-.5 2.6-2.1 4.8-4.5 6.3l7.1 5.5c4.1-3.8 6.9-9.4 6.9-16.3z"/>
            <path fill="#FBBC05" d="M10.4 28.7c-1-2.6-1.6-5.4-1.6-8.2s.6-5.6 1.6-8.2l-7.9-6.1C.9 9.9 0 14.8 0 20.5s.9 10.6 2.5 15.3l7.9-6.1z"/>
            <path fill="#EA4335" d="M24 48c6.3 0 11.6-2.1 15.5-5.7l-7.1-5.5c-2 1.4-4.6 2.3-8.4 2.3-6.4 0-11.8-4.3-13.7-10.1l-7.9 6.1C6.4 42.6 14.6 48 24 48z"/>
        </symbol>
    </defs>
</svg>